#!OML:ASF X:\für Bonn\!DataBase\2005_08_11_Bastian_Final\c3d\Bastian.ASF
:FULLY-SPECIFIED
:DEGREES
1861
root -2.26858 17.0951 -6.69838 176.441 -53.7495 -186.255
lowerback 9.35079 -5.06806 -4.53515
upperback -0.210994 -7.28749 -0.305128
thorax -4.91823 -3.50085 3.15443
lowerneck 8.25418 -17.6341 -6.47976
upperneck -11.6917 -23.5028 15.1942
head -2.1864 -12.3552 6.04351
rclavicle 2.64632e-014 -9.54166e-015
rhumerus -155.634 -153.207 156.281
rradius 117.859
rwrist -123.748
rhand 35.7367 17.3152
rfingers 7.12502
rthumb 58.7771 2.31216
lclavicle 2.64632e-014 -9.54166e-015
lhumerus 85.6106 3.542 45.9977
lradius 82.1655
lwrist 210.209
lhand -4.53375 46.7432
lfingers 7.12502
lthumb 21.2413 75.5994
rfemur -14.317 -10.8577 2.56089
rtibia 51.2531
rfoot -12.9687 -0.278153
rtoes -17.6991
lfemur 14.8446 -1.20396 -14.554
ltibia 21.8551
lfoot -13.947 -15.1331
ltoes -32.9799
1862
root -2.26037 17.1786 -6.76756 176.822 -54.1199 -186.587
lowerback 9.37465 -5.12439 -4.38751
upperback -0.321906 -7.35434 -0.386839
thorax -5.07209 -3.53073 3.00781
lowerneck 8.00923 -17.5803 -6.68065
upperneck -11.5186 -23.4528 15.2439
head -2.07144 -12.3173 6.03919
rclavicle 5.73494e-014 8.34896e-015
rhumerus -155.102 -152.777 156.53
rradius 116.835
rwrist -123.754
rhand 37.0262 17.3795
rfingers 7.12502
rthumb 59.8876 3.48179
lclavicle 5.73494e-014 8.34896e-015
lhumerus 85.9543 3.67236 46.3987
lradius 82.3287
lwrist 209.195
lhand -4.2168 47.3798
lfingers 7.12502
lthumb 21.5458 76.2014
rfemur -13.7461 -10.8743 2.57413
rtibia 50.4912
rfoot -12.5555 -0.524689
rtoes -17.4085
lfemur 14.9715 -1.60338 -14.6206
ltibia 21.1629
lfoot -12.4086 -15.0558
ltoes -33.5968
1863
root -2.24586 17.2264 -6.83295 177.27 -54.4773 -187.03
lowerback 9.37881 -5.17893 -4.30472
upperback -0.383219 -7.42585 -0.492053
thorax -5.1581 -3.5655 2.86754
lowerneck 7.68749 -17.5315 -6.81751
upperneck -11.3275 -23.402 15.2689
head -1.94999 -12.2779 6.01296
rclavicle -4.82053e-015 -1.55052e-014
rhumerus -154.407 -152.293 156.607
rradius 115.65
rwrist -123.771
rhand 38.3841 17.3785
rfingers 7.12502
rthumb 61.0427 4.7415
lclavicle -4.82053e-015 -1.55052e-014
lhumerus 86.3805 3.7768 46.8294
lradius 82.4321
lwrist 208.228
lhand -3.9885 47.9225
lfingers 7.12502
lthumb 21.765 76.7188
rfemur -13.2765 -10.8485 2.49179
rtibia 49.7806
rfoot -12.0539 -0.764059
rtoes -17.1806
lfemur 15.0693 -1.96782 -14.7138
ltibia 20.5617
lfoot -10.8424 -14.9999
ltoes -34.3372
1864
root -2.23642 17.3179 -6.90147 177.703 -54.8326 -187.485
lowerback 9.43392 -5.23956 -4.24798
upperback -0.445709 -7.50957 -0.568536
thorax -5.2664 -3.60452 2.77822
lowerneck 7.34502 -17.4692 -7.02607
upperneck -11.1031 -23.3387 15.3141
head -1.80592 -12.2294 5.99572
rclavicle 3.52346e-014 5.96354e-015
rhumerus -153.551 -151.866 156.606
rradius 114.2
rwrist -123.803
rhand 39.8671 17.3225
rfingers 7.12502
rthumb 62.2849 6.18797
lclavicle 3.52346e-014 5.96354e-015
lhumerus 86.785 3.86181 47.3048
lradius 82.4524
lwrist 207.261
lhand -3.76613 48.5644
lfingers 7.12502
lthumb 21.9785 77.3357
rfemur -12.5971 -10.8171 2.44328
rtibia 48.8607
rfoot -11.5188 -1.02669
rtoes -17.0371
lfemur 15.1603 -2.31034 -14.8439
ltibia 19.9989
lfoot -9.23022 -14.92
ltoes -35.2048
1865
root -2.2227 17.3948 -6.96793 178.151 -55.1642 -187.973
lowerback 9.5029 -5.28774 -4.21764
upperback -0.502993 -7.57997 -0.636515
thorax -5.37385 -3.63636 2.71177
lowerneck 7.00123 -17.4099 -7.22923
upperneck -10.8698 -23.2774 15.3304
head -1.66337 -12.1796 5.97032
rclavicle -8.94531e-016 1.23246e-014
rhumerus -152.503 -151.446 156.482
rradius 112.46
rwrist -123.908
rhand 41.5321 17.0755
rfingers 7.12502
rthumb 63.6524 7.80344
lclavicle -8.94531e-016 1.23246e-014
lhumerus 87.2468 3.85169 47.8503
lradius 82.2906
lwrist 206.375
lhand -3.62789 49.259
lfingers 7.12502
lthumb 22.1113 78.0146
rfemur -12.0019 -10.7294 2.37356
rtibia 48.0421
rfoot -10.9892 -1.26529
rtoes -16.7428
lfemur 15.0155 -2.58761 -14.9537
ltibia 19.9088
lfoot -7.80595 -14.8605
ltoes -36.0497
1866
root -2.20714 17.4747 -7.03413 178.546 -55.4623 -188.393
lowerback 9.57368 -5.33832 -4.14715
upperback -0.55306 -7.64915 -0.706837
thorax -5.48057 -3.66902 2.62103
lowerneck 6.67218 -17.3431 -7.36322
upperneck -10.6646 -23.1987 15.3359
head -1.54299 -12.1241 5.94023
rclavicle 5.86912e-014 -5.96354e-015
rhumerus -151.296 -151.066 156.198
rradius 110.425
rwrist -123.842
rhand 43.3023 17.0553
rfingers 7.12502
rthumb 65.0695 9.99455
lclavicle 5.86912e-014 -5.96354e-015
lhumerus 87.7486 3.79661 48.3622
lradius 81.9144
lwrist 205.744
lhand -3.625 50.1804
lfingers 7.12502
lthumb 22.114 78.9358
rfemur -11.3661 -10.5446 2.37328
rtibia 47.0846
rfoot -10.3725 -1.56261
rtoes -16.448
lfemur 14.8709 -2.74944 -14.9892
ltibia 19.761
lfoot -6.29054 -14.8737
ltoes -37.0572
1867
root -2.18846 17.5408 -7.09797 178.982 -55.7419 -188.822
lowerback 9.58418 -5.38947 -4.10684
upperback -0.577638 -7.71688 -0.749778
thorax -5.51919 -3.7026 2.56626
lowerneck 6.36213 -17.2584 -7.48643
upperneck -10.5624 -23.0865 15.364
head -1.45828 -12.056 5.92635
rclavicle -4.67144e-015 1.98785e-014
rhumerus -149.891 -150.668 155.865
rradius 108.114
rwrist -123.842
rhand 44.9533 16.9861
rfingers 7.12502
rthumb 66.3512 12.2326
lclavicle -4.67144e-015 1.98785e-014
lhumerus 88.3199 3.73308 48.8938
lradius 81.2416
lwrist 205.397
lhand -3.79325 51.448
lfingers 7.12502
lthumb 21.9525 80.2224
rfemur -10.836 -10.3831 2.37472
rtibia 46.1845
rfoot -9.73046 -1.84642
rtoes -16.2158
lfemur 14.5316 -2.88448 -15.0087
ltibia 19.9091
lfoot -4.79921 -14.8716
ltoes -37.7222
1868
root -2.17137 17.6264 -7.16229 179.37 -55.9674 -189.231
lowerback 9.64951 -5.42788 -4.06206
upperback -0.614921 -7.76992 -0.785869
thorax -5.60282 -3.72713 2.52147
lowerneck 6.10039 -17.161 -7.66645
upperneck -10.4318 -22.9643 15.4284
head -1.36287 -11.9834 5.9321
rclavicle 9.323e-014 1.59028e-015
rhumerus -148.306 -150.375 155.432
rradius 105.601
rwrist -123.725
rhand 45.901 17.0647
rfingers 7.12502
rthumb 67.0669 13.7547
lclavicle 9.323e-014 1.59028e-015
lhumerus 88.9042 3.55461 49.4862
lradius 80.2561
lwrist 205.25
lhand -4.21353 52.9945
lfingers 7.12502
lthumb 21.5489 81.8157
rfemur -10.2154 -10.1147 2.40803
rtibia 45.1883
rfoot -9.04937 -2.14272
rtoes -15.9409
lfemur 14.1808 -2.9755 -15.0274
ltibia 20.1129
lfoot -3.25893 -14.8819
ltoes -38.5239
